<svg width="100" height="100" viewBox="0 0 100 100" fill="none" xmlns="http://www.w3.org/2000/svg">
<path d="M57.0166 10.001C63.0908 9.94971 75.8482 12.3995 78.8633 22.541C78.938 22.7922 78.9717 23.0573 78.9717 23.3193V44.7236C79.2461 46.6902 77.8523 51.1399 70.7842 54.8115C69.1557 55.6574 68.4311 57.6764 69.3486 59.2656L82.3574 81.7979C83.512 83.7977 82.0689 86.2975 79.7598 86.2979H64.3545C63.2828 86.2979 62.2928 85.7259 61.7568 84.7979L47.9219 60.835C47.6586 60.3789 47.5195 59.8616 47.5195 59.335V23.7334C47.5193 22.2757 46.4713 21.0288 45.0352 20.7783L20.7373 16.54L42.1748 23.4971C43.4113 23.8984 44.2489 25.0506 44.249 26.3506V86.7314C44.249 88.5571 42.6315 89.9594 40.8242 89.7012L19.5762 86.666C18.0983 86.4549 17.0002 85.1891 17 83.6963V13.001C17 11.3441 18.3431 10.001 20 10.001H57.0166ZM40.668 54.8438C39.808 54.8438 39.1104 55.5414 39.1104 56.4014C39.1105 57.2612 39.8081 57.958 40.668 57.958C41.5276 57.9578 42.2244 57.2611 42.2246 56.4014C42.2246 55.5415 41.5278 54.8439 40.668 54.8438Z" fill="url(#paint0_linear_4_8)"/>
<defs>
<linearGradient id="paint0_linear_4_8" x1="67.5" y1="45.5" x2="88.5" y2="10" gradientUnits="userSpaceOnUse">
<stop stop-color="#0B66BF"/>
<stop offset="1" stop-color="#419CF4"/>
</linearGradient>
</defs>
</svg>
